<?xml version="1.0" standalone="no"?>
<!DOCTYPE svg PUBLIC "-//W3C//DTD SVG 20010904//EN"
 "http://www.w3.org/TR/2001/REC-SVG-20010904/DTD/svg10.dtd">
<svg version="1.0" xmlns="http://www.w3.org/2000/svg"
 width="1200.000000pt" height="1200.000000pt" viewBox="0 0 1200.000000 1200.000000"
 preserveAspectRatio="xMidYMid meet">
<metadata>
Created by potrace 1.11, written by Peter Selinger 2001-2013
</metadata>
<g transform="translate(0.000000,1200.000000) scale(0.100000,-0.100000)"
fill="#000000" stroke="none">
<path d="M5795 9118 c-333 -194 -1337 -778 -1725 -1003 -206 -119 -378 -220
-382 -223 -3 -4 -8 -179 -10 -389 l-3 -383 105 -61 c58 -34 160 -93 228 -131
67 -39 124 -73 126 -77 2 -3 -93 -62 -211 -131 -118 -68 -221 -129 -228 -135
-11 -8 -14 -89 -17 -393 l-3 -383 75 -43 c41 -24 296 -170 565 -326 670 -386
733 -422 950 -547 105 -60 308 -178 452 -262 144 -83 269 -154 277 -157 8 -3
364 198 828 467 447 259 964 559 1148 666 184 107 338 198 342 201 3 4 8 179
10 389 l3 383 -210 121 c-116 67 -221 128 -233 136 -23 14 -17 19 200 145 122
71 226 133 230 136 3 4 8 179 10 390 l3 383 -40 23 c-39 22 -249 144 -965 556
-184 106 -418 241 -520 300 -601 348 -798 460 -806 460 -5 -1 -94 -51 -199
-112z m938 -1087 c408 -236 781 -451 829 -479 64 -36 84 -52 75 -59 -30 -24
-434 -253 -445 -253 -7 0 -81 40 -165 89 -84 48 -287 166 -452 261 -165 95
-361 208 -436 251 -75 44 -139 79 -143 79 -6 0 -720 -411 -1070 -617 -79 -46
-115 -62 -127 -56 -73 35 -446 259 -441 265 4 3 176 104 382 224 206 120 571
331 810 470 239 140 436 254 438 254 2 0 337 -193 745 -429z m-482 -1030 c143
-83 259 -153 258 -158 -1 -4 -113 -72 -248 -151 -202 -117 -250 -141 -266
-134 -25 11 -473 269 -498 287 -15 10 16 31 235 158 139 81 254 147 256 147 1
0 119 -67 263 -149z m-1194 -679 c131 -76 346 -201 478 -277 132 -76 289 -167
349 -202 62 -36 118 -62 127 -60 10 3 275 154 589 337 314 183 576 333 583
334 18 2 467 -258 459 -266 -16 -15 -1626 -948 -1636 -948 -7 0 -16 4 -21 9
-9 8 -349 205 -1105 641 -184 106 -379 219 -433 250 l-99 58 94 54 c296 174
354 207 365 208 7 0 119 -62 250 -138z"/>
<path d="M4901 3555 c-100 -28 -163 -83 -210 -185 -24 -52 -26 -65 -29 -245
-3 -126 0 -209 8 -245 38 -172 163 -271 326 -257 75 6 123 32 150 82 28 52 44
45 44 -20 l0 -55 80 0 80 0 0 240 0 240 -200 0 -200 0 0 -85 0 -85 110 0 110
0 0 -26 c0 -75 -84 -131 -181 -122 -53 5 -89 26 -123 72 -20 26 -21 41 -21
231 0 190 1 205 21 231 33 45 70 67 122 72 99 9 170 -40 179 -122 l6 -46 90 0
90 0 -6 54 c-17 164 -139 273 -316 282 -49 3 -95 -1 -130 -11z"/>
<path d="M5690 3096 l0 -466 85 0 c81 0 85 1 86 23 0 12 1 91 1 175 l1 152
118 0 c164 0 159 7 159 -195 l0 -155 91 0 90 0 -3 186 -3 186 -33 29 c-18 16
-39 29 -47 29 -28 0 -15 27 24 53 60 40 85 100 79 195 -5 85 -19 120 -70 171
-67 69 -96 76 -350 79 l-228 4 0 -466z m417 274 c41 -25 56 -53 55 -107 -2
-91 -43 -115 -194 -111 l-103 3 -1 118 -1 117 106 0 c87 0 112 -3 138 -20z"/>
<path d="M6650 3475 l0 -85 125 0 125 0 0 -380 0 -380 90 0 90 0 0 380 0 380
125 0 125 0 0 85 0 85 -340 0 -340 0 0 -85z"/>
</g>
</svg>
